{"title":"Zombieland 2009 DVDRip Xvid BigPerm LKRG","uid":7122687,"size":840041633,"categoryP":"video","categoryS":"movies","magnet":"?xt=urn:btih:a35425dfda3b50a8c1fffce0263f5f86c84ecc2e&amp;dn=Zombieland+2009+DVDRip+Xvid+BigPerm+LKRG&amp;tr=udp%3A%2F%2Ftracker.openbittorrent.com%3A80&amp;tr=udp%3A%2F%2Fopen.demonii.com%3A1337&amp;tr=udp%3A%2F%2Ftracker.coppersurfer.tk%3A6969&amp;tr=udp%3A%2F%2Fexodus.desync.com%3A6969","seeders":0,"leechers":1,"uploader":".BONE.","files":2,"time":1332374525,"description":"PLOT\n\nA shy student trying to reach his family in Ohio, and a gun-toting tough guy trying to\nfind the Last Twinkie and a pair of sisters trying to get to an amusement park join forces to travel across\na zombie-filled America.\n\n\nEncoded By .......: BigPerm\nRuntime ..........: 1h 26mn\nFile Size ........: 801 MiB\nResolution .......: 720 x 304 &lt;a href=&quot;\nhttp://www.imdb.com/title/tt1156398/&quot; rel=&quot;nofollow&quot; target=&quot;_NEW&quot;&gt;\nhttp://www.imdb.com/title/tt1156398/&lt;/a&gt;\nGenre ............: Action,Comedy,Horror\nLanguage .........: English\nSubtitles ........: None\nVideo\nID : 0\nFormat : MPEG-4 Visual\nFormat profile : Advanced Simple@L5\nFormat settings, BVOP : Yes\nFormat settings, QPel : No\nFormat settings, GMC : No warppoints\nFormat settings, Matrix : Default (H.263)\nMuxing mode : Packed bitstream\nCodec ID : XVID\nCodec ID/Hint : XviD\nDuration : 1h 26mn\nBit rate : 830 Kbps\nWidth : 720 pixels\nHeight : 304 pixels\nDisplay aspect ratio : 2.35:1\nFrame rate : 23.976 fps\nColor space : YUV\nChroma subsampling : 4:2:0\nBit depth : 8 bits\nScan type : Progressive\nCompression mode : Lossy\nBits/(Pixel*Frame) : 0.158\nStream size : 517 MiB (64%)\nWriting library : XviD 64\nAudio\nID : 1\nFormat : AC-3\nFormat/Info : Audio Coding 3\nMode extension : CM (complete main)\nCodec ID : 2000\nDuration : 1h 26mn\nBit rate mode : Constant\nBit rate : 448 Kbps\nChannel(s) : 6 channels\nChannel positions : Front: L C R, Side: L R, LFE\nSampling rate : 48.0 KHz\nBit depth : 16 bits\nCompression mode : Lossy\nStream size : 279 MiB (35%)\nAlignment : Split accross interleaves\nInterleave, duration : 42 ms (1.00 video frame)\nInterleave, preload duration : 500 ms\n","torrent":{"xt":"urn:btih:a35425dfda3b50a8c1fffce0263f5f86c84ecc2e","amp;dn":"Zombieland+2009+DVDRip+Xvid+BigPerm+LKRG","amp;tr":["udp%3A%2F%2Ftracker.openbittorrent.com%3A80","udp%3A%2F%2Fopen.demonii.com%3A1337","udp%3A%2F%2Ftracker.coppersurfer.tk%3A6969","udp%3A%2F%2Fexodus.desync.com%3A6969"],"infoHash":"a35425dfda3b50a8c1fffce0263f5f86c84ecc2e","infoHashBuffer":{"type":"Buffer","data":[163,84,37,223,218,59,80,168,193,255,252,224,38,63,95,134,200,78,204,46]},"announce":[],"urlList":[]}}